<?xml version="1.0" encoding="UTF-8" standalone="no"?>
<svg
   width="16"
   height="16"
   fill="currentColor"
   class="bi bi-person"
   viewBox="0 0 16 16"
   version="1.1"
   id="svg135"
   sodipodi:docname="Whiteperson.svg"
   inkscape:version="1.2.2 (732a01da63, 2022-12-09)"
   xmlns:inkscape="http://www.inkscape.org/namespaces/inkscape"
   xmlns:sodipodi="http://sodipodi.sourceforge.net/DTD/sodipodi-0.dtd"
   xmlns="http://www.w3.org/2000/svg"
   xmlns:svg="http://www.w3.org/2000/svg">
  <defs
     id="defs139" />
  <sodipodi:namedview
     id="namedview137"
     pagecolor="#ffffff"
     bordercolor="#000000"
     borderopacity="0.25"
     inkscape:showpageshadow="2"
     inkscape:pageopacity="0.0"
     inkscape:pagecheckerboard="0"
     inkscape:deskcolor="#d1d1d1"
     showgrid="false"
     showguides="true"
     inkscape:zoom="50.25"
     inkscape:cx="8.5671642"
     inkscape:cy="8.2885572"
     inkscape:window-width="1920"
     inkscape:window-height="991"
     inkscape:window-x="-9"
     inkscape:window-y="-9"
     inkscape:window-maximized="1"
     inkscape:current-layer="svg135" />
  <path
     d="M8 8a3 3 0 1 0 0-6 3 3 0 0 0 0 6m2-3a2 2 0 1 1-4 0 2 2 0 0 1 4 0m4 8c0 1-1 1-1 1H3s-1 0-1-1 1-4 6-4 6 3 6 4m-1-.004c-.001-.246-.154-.986-.832-1.664C11.516 10.68 10.289 10 8 10c-2.29 0-3.516.68-4.168 1.332-.678.678-.83 1.418-.832 1.664z"
     id="path133"
     style="fill:#ffffff" />
  <ellipse
     style="fill:#ffffff;fill-opacity:0;stroke:#ffffff;stroke-width:2.66079;stroke-linecap:square;paint-order:fill markers stroke"
     id="path1319"
     cx="8.0842361"
     cy="5.0306602"
     rx="1.3719982"
     ry="1.0764909" />
  <ellipse
     style="fill:#ffffff;fill-opacity:1;stroke:#ffffff;stroke-width:2.70525;stroke-linecap:square;paint-order:fill markers stroke"
     id="path1375"
     cx="7.873354"
     cy="11.761973"
     rx="3.3549984"
     ry="0.88540149" />
  <rect
     style="fill:#ffffff;fill-opacity:0;stroke:#ffffff;stroke-width:0.91205;stroke-linecap:square;paint-order:fill markers stroke"
     id="rect1446"
     width="0.060127314"
     height="0.24183615"
     x="3.3537796"
     y="12.424683" />
  <rect
     style="fill:#000000;fill-opacity:0;stroke:#ffffff;stroke-width:1.07542;stroke-linecap:square;paint-order:fill markers stroke"
     id="rect1446-5"
     width="0.070897326"
     height="0.28515387"
     x="12.458461"
     y="12.299682" />
</svg>
